<svg width="280" height="293" viewBox="0 0 280 293" fill="none" xmlns="http://www.w3.org/2000/svg">
<rect x="0.5" y="6.66016" width="279" height="279" rx="43.5" fill="white" stroke="white"/>
<path d="M176.047 25.5035C162.876 74.6568 97.4214 115.59 53.0742 103.707" stroke="black" stroke-width="17" stroke-linecap="round"/>
<path d="M196.242 76.5967C187.582 108.917 144.584 135.843 115.461 128.039" stroke="url(#paint0_linear_667_33)" stroke-width="17" stroke-linecap="round"/>
<path d="M166.687 211.046C158.027 243.366 115.03 270.292 85.9062 262.488" stroke="url(#paint1_linear_667_33)" stroke-width="17" stroke-linecap="round"/>
<path d="M53.0791 103.711C69.9766 108.239 116.475 174.253 106.277 212.312" stroke="black" stroke-width="17" stroke-linecap="round"/>
<path d="M234.207 157.952C201.887 149.292 184.467 119.12 195.887 76.5" stroke="url(#paint2_linear_667_33)" stroke-width="17" stroke-linecap="round"/>
<path d="M115.815 128.137C148.135 136.797 175.061 179.794 167.258 208.918" stroke="url(#paint3_linear_667_33)" stroke-width="17" stroke-linecap="round"/>
<defs>
<linearGradient id="paint0_linear_667_33" x1="164.987" y1="68.2221" x2="146.715" y2="136.414" gradientUnits="userSpaceOnUse">
<stop stop-color="#54B0F8"/>
<stop offset="1" stop-color="#54B0F8"/>
</linearGradient>
<linearGradient id="paint1_linear_667_33" x1="135.433" y1="202.671" x2="117.161" y2="270.863" gradientUnits="userSpaceOnUse">
<stop stop-color="#3A8DEC"/>
<stop offset="1" stop-color="#3C8FED"/>
</linearGradient>
<linearGradient id="paint2_linear_667_33" x1="223.945" y1="84.0181" x2="206.149" y2="150.434" gradientUnits="userSpaceOnUse">
<stop stop-color="#53AFF8"/>
<stop offset="1" stop-color="#3B8EEC"/>
</linearGradient>
<linearGradient id="paint3_linear_667_33" x1="149.911" y1="137.273" x2="133.162" y2="199.782" gradientUnits="userSpaceOnUse">
<stop stop-color="#54B1F8"/>
<stop offset="1" stop-color="#3B8DEC"/>
</linearGradient>
</defs>
</svg>
